<svg width="24" height="24" viewBox="0 0 24 24" fill="none" xmlns="http://www.w3.org/2000/svg">
  <path d="M19.14 12.94c0.04-0.31 0.06-0.63 0.06-0.94s-0.02-0.63-0.06-0.94l2.03-1.58c0.18-0.14 0.23-0.41 0.12-0.61l-1.92-3.32c-0.11-0.2-0.36-0.28-0.57-0.22l-2.39 0.96c-0.5-0.38-1.04-0.7-1.64-0.94l-0.36-2.54C14.46 2.18 14.25 2 14 2h-4c-0.25 0-0.46 0.18-0.49 0.42l-0.36 2.54c-0.6 0.24-1.14 0.56-1.64 0.94l-2.39-0.96c-0.21-0.06-0.46 0.02-0.57 0.22l-1.92 3.32c-0.11 0.2-0.06 0.47 0.12 0.61l2.03 1.58c-0.04 0.31-0.06 0.63-0.06 0.94s0.02 0.63 0.06 0.94l-2.03 1.58c-0.18 0.14-0.23 0.41-0.12 0.61l1.92 3.32c0.11 0.2 0.36 0.28 0.57 0.22l2.39-0.96c0.5 0.38 1.04 0.7 1.64 0.94l0.36 2.54c0.03 0.24 0.24 0.42 0.49 0.42h4c0.25 0 0.46-0.18 0.49-0.42l0.36-2.54c0.6-0.24 1.14-0.56 1.64-0.94l2.39 0.96c0.21 0.06 0.46-0.02 0.57-0.22l1.92-3.32c0.11-0.2 0.06-0.47-0.12-0.61l-2.03-1.58zM12 15.5c-1.93 0-3.5-1.57-3.5-3.5s1.57-3.5 3.5-3.5 3.5 1.57 3.5 3.5-1.57 3.5-3.5 3.5z" fill="#FFFFFF"/>
</svg>
